HIERARCHY
ROOT pelvis
{
  OFFSET 0 100 0
  CHANNELS 6 Xposition Yposition Zposition Zrotation Xrotation Yrotation
  JOINT pelvis_right_femur
  {
    OFFSET -10.78128 -3.44521 -0.5502486
    CHANNELS 3 Zrotation Xrotation Yrotation
    JOINT right_femur_tibia
    {
      OFFSET -0.8047443 -44.0398 -0.1307829
      CHANNELS 3 Zrotation Xrotation Yrotation
      JOINT right_tibia_foot
      {
        OFFSET 3.006224 -47.83518 -5
        CHANNELS 3 Zrotation Xrotation Yrotation
        End Site
        {
          OFFSET 0 -5 15
        }
      }
    }
  }
  JOINT pelvis_left_femur
  {
    OFFSET 10.78128 -3.44521 -0.5502486
    CHANNELS 3 Zrotation Xrotation Yrotation
    JOINT left_femur_tibia
    {
      OFFSET 0.8047443 -44.0398 -0.1307829
      CHANNELS 3 Zrotation Xrotation Yrotation
      JOINT left_tibia_foot
      {
        OFFSET -4.370144 -48.10324 -4.275266
        CHANNELS 3 Zrotation Xrotation Yrotation
        End Site
        {
          OFFSET 0 -5 15
        }
      }
    }
  }
  JOINT pelvis_spine1
  {
    OFFSET 0 6.468898 -3.129235
    CHANNELS 3 Zrotation Xrotation Yrotation
    JOINT spine1
    {
      OFFSET 0 23.15396 4.99043
      CHANNELS 3 Zrotation Xrotation Yrotation
      JOINT spine2
      {
        OFFSET 0 20.79997 -5.064912
        CHANNELS 3 Zrotation Xrotation Yrotation
        JOINT neck
        {
          OFFSET 0 14.38658 9.616178
          CHANNELS 3 Zrotation Xrotation Yrotation
          End Site
          {
            OFFSET 0 20 0
          }
        }
      }
      JOINT right_manubrium
      {
        OFFSET -5.722621 16.35077 3.967754
        CHANNELS 3 Zrotation Xrotation Yrotation
        JOINT right_clavicle
        {
          OFFSET -13.16364 1.694482 -4.693211
          CHANNELS 3 Zrotation Xrotation Yrotation
          JOINT right_humerus
          {
            OFFSET -28.5034 -0.3100689 -2.792744
            CHANNELS 3 Zrotation Xrotation Yrotation
            JOINT right_radius
            {
              OFFSET -25.15693 0.02248979 -1.271978
              CHANNELS 3 Zrotation Xrotation Yrotation
              End Site
              {
                OFFSET -15 0 0
              }
            }
          }
        }
      }
      JOINT left_manubrium
      {
        OFFSET 5.722621 16.35077 3.967754
        CHANNELS 3 Zrotation Xrotation Yrotation
        JOINT left_clavicle
        {
          OFFSET 13.16364 1.694482 -4.693211
          CHANNELS 3 Zrotation Xrotation Yrotation
          JOINT left_humerus
          {
            OFFSET 29.39168 -1.063119 -2.237045
            CHANNELS 3 Zrotation Xrotation Yrotation
            JOINT left_radius
            {
              OFFSET 24.59957 -0.9528479 0.9047498
              CHANNELS 3 Zrotation Xrotation Yrotation
              End Site
              {
                OFFSET 15 -0 -0
              }
            }
          }
        }
      }
    }
  }
}
MOTION
Frames: 15
Frame Time: 0.0416666666667
0 103.5113 0 1.099905 -2.117647 0.09304099 3.196858 -15.85217 7.922362 -0 37.07168 -0 -6.099885 -14.98189 -3.991407 -6.927042 12.12661 -23.00366 -0 4.848754 -0 7.223092 -17.43783 25.72134 -2.80038 -3.772212 4.045711 3.456424 8.38846 -9.207049 1.751782 19.56415 7.471066 3.558311 -28.47971 10.70927 5.302324 -19.79288 10.94157 84.21364 30.41883 -18.61893 -0 0 19.21013 -7.811062 8.349601 2.6899 9.405608 -20.82024 3.19522 -94.45731 20.61338 20.43702 0 0 -8.839578 14.09228 18.72953 -3.422893
0.2155614 103.2718 1.639301 0.6353817 -1.412181 0.1311499 3.822236 -19.41884 8.04269 -0 37.00855 -0 -5.976158 -13.62257 -3.942519 -6.574085 12.74112 -22.96939 -0 5.382206 -0 5.226791 -19.50942 24.85451 -2.652529 -3.586322 3.574583 3.83222 7.897218 -9.351287 1.592687 19.16008 7.951868 3.880606 -28.87883 10.81277 5.425651 -19.08556 11.04928 83.96923 30.32814 -18.92761 -0 0 18.60034 -8.030606 8.92707 3.185015 9.611224 -20.9168 3.435926 -94.15404 20.49018 19.51842 0 0 -9.796778 13.55842 18.1004 -3.146291
0.4300249 102.9368 3.50737 0.03206128 -0.3008367 0.1720277 4.862251 -24.03696 8.039233 -0 34.55623 -0 -5.875843 -12.19654 -3.583256 -6.149819 12.97811 -22.28495 -0 5.644449 -0 5.096385 -20.79983 24.16323 -2.3662 -3.060168 3.450093 3.980309 8.141432 -9.273614 1.361708 19.15571 8.239619 4.044572 -28.62311 10.66813 5.268111 -18.4763 11.41218 84.99651 32.31538 -19.53496 -0 0 16.19008 -8.081799 9.065414 3.825011 9.124308 -21.48068 2.602121 -92.4427 19.82042 17.99542 0 0 -13.79804 14.22884 16.35392 -4.080209
0.6559722 102.5042 5.666954 -0.4807456 1.155202 0.2582749 5.842754 -28.47438 8.125007 -0 31.16277 -0 -5.425252 -11.02088 -3.175749 -5.830489 13.14387 -21.49448 -0 5.742827 -0 4.899449 -22.11843 23.26294 -2.196659 -2.795902 3.194058 4.178122 8.012535 -9.3328 1.198373 18.96501 8.544905 4.247059 -28.67057 10.62297 5.261569 -17.95525 11.56654 85.33099 32.8952 -19.99468 -0 0 15.03417 -8.325091 9.412508 4.327108 9.07804 -21.75835 2.369034 -91.66063 19.57245 16.97016 0 0 -15.74507 14.09368 15.41205 -4.102388
0.9039086 101.9685 8.234108 -0.898571 2.793356 0.4340023 6.791993 -32.53398 8.162491 -0 26.81942 -0 -4.85758 -9.758853 -2.714088 -5.633255 13.36163 -20.49348 -0 5.952494 -0 4.963146 -23.16316 22.23984 -2.0412 -2.545751 3.011811 4.30905 7.973697 -9.375083 1.05058 18.83549 8.780429 4.401308 -28.6363 10.54723 5.205771 -17.53433 11.70413 85.78669 33.48582 -20.47065 -0 0 13.89515 -8.600207 9.682663 4.785912 8.996961 -22.05338 2.063805 -90.84796 19.31315 15.9995 0 0 -17.6918 14.02534 14.47895 -4.148506
1.168562 101.3381 11.32926 -1.253558 4.347751 0.7434471 7.599101 -35.733 7.981491 -0 22.19115 -0 -4.445679 -8.156618 -2.254986 -5.505603 13.76952 -19.31866 -0 6.656643 -0 4.634321 -23.91993 20.8472 -1.911292 -2.341748 2.824763 4.429739 7.904971 -9.430302 0.9213653 18.70262 8.98229 4.541973 -28.60459 10.46482 5.205257 -17.14371 11.8007 86.12725 33.85772 -20.9264 -0 0 12.97391 -8.900263 9.986733 5.217358 8.960982 -22.28422 1.812598 -90.22171 19.19953 15.18244 0 0 -19.23917 13.77478 13.71788 -3.947156
1.433933 100.6525 15.06332 -1.596783 5.546008 1.216652 8.218184 -37.62855 7.501189 -0 18.02038 -0 -4.453508 -6.206431 -1.852803 -5.378993 14.4166 -18.00541 -0 8.365452 -0 3.610008 -24.07418 18.95749 -1.791798 -2.14549 2.682331 4.507957 7.897497 -9.466661 0.8070167 18.61935 9.122054 4.643363 -28.50535 10.35291 5.210165 -16.80428 11.88087 86.50792 34.20327 -21.39162 -0 0 12.09474 -9.214544 10.26892 5.625817 8.882109 -22.4934 1.500499 -89.63977 19.16328 14.47464 0 0 -20.66975 13.47481 12.99377 -3.630473
1.681354 99.99808 19.50648 -1.996564 6.157387 1.843344 8.673674 -37.89734 6.759905 -0 15.05536 -0 -5.037687 -4.145235 -1.549664 -5.152385 15.16012 -16.61064 -0 11.66804 -0 1.646029 -23.26303 16.50254 -1.680984 -1.948954 2.584484 4.544255 7.95664 -9.476954 0.7069988 18.59336 9.193133 4.702415 -28.32825 10.2039 5.233559 -16.50517 11.94664 86.91866 34.52193 -21.86476 -0 0 11.25365 -9.549211 10.54332 6.023483 8.741693 -22.66572 1.11277 -89.1191 19.23674 13.90478 0 0 -21.94881 13.08536 12.30001 -3.14412
1.902794 99.51807 24.65286 -2.477043 6.027611 2.538048 9.046765 -36.35982 5.919008 -0 13.78994 -0 -6.182611 -2.432582 -1.368186 -4.743822 15.57801 -15.19242 -0 17.15178 -0 -1.046816 -21.09371 13.70143 -1.577604 -1.741666 2.555324 4.521231 8.114446 -9.444428 0.6226231 18.64835 9.17946 4.706982 -28.04602 10.00866 5.256744 -16.26133 12.00208 87.39466 34.84116 -22.33815 -0 0 10.43035 -9.918477 10.79354 6.412015 8.507401 -22.79855 0.6179885 -88.64175 19.41338 13.49365 0 0 -23.09199 12.62556 11.5995 -2.49951
2.112318 99.39265 30.39147 -2.9685 5.168469 3.133948 9.370818 -33.0847 5.168057 -0 14.10853 -0 -7.621448 -1.577097 -1.319052 -4.147528 15.00196 -13.79287 -0 25.09071 -0 -3.827251 -17.4824 11.04907 -1.484791 -1.520112 2.612013 4.426067 8.382635 -9.354521 0.5555133 18.79815 9.070558 4.650814 -27.64266 9.76117 5.271011 -16.08573 12.04747 87.92433 35.14919 -22.77977 -0 0 9.65327 -10.34705 11.01603 6.799066 8.163087 -22.87305 0.01179573 -88.22625 19.70242 13.28533 0 0 -24.03861 12.08193 10.88172 -1.676475
2.341509 99.76813 36.50299 -3.287622 3.755354 3.439437 9.517599 -28.35593 4.574144 -0 15.17822 -0 -8.933658 -1.866394 -1.38725 -3.479999 12.76729 -12.43033 -0 35.04834 -0 -5.895858 -12.92346 9.102563 -1.408625 -1.28591 2.775569 4.243318 8.763707 -9.190294 0.5076274 19.0513 8.860686 4.53112 -27.10758 9.459763 5.260845 -16.001 12.08206 88.47218 35.42353 -23.12835 -0 0 8.983146 -10.86768 11.20358 7.194006 7.703795 -22.86549 -0.6906675 -87.90169 20.10101 13.33387 0 0 -24.70581 11.4489 10.1421 -0.6713232
2.614046 100.6628 42.70741 -3.209566 2.063727 3.351367 9.258154 -22.61165 4.065712 -0 15.82733 -0 -9.760398 -3.165296 -1.49749 -2.928906 8.602381 -11.12605 -0 45.59235 -0 -6.7684 -8.439464 8.183126 -1.357896 -1.047203 3.061301 3.962403 9.237609 -8.936878 0.4792845 19.40195 8.556088 4.35425 -26.444 9.108317 5.212897 -16.03111 12.10454 88.95966 35.62902 -23.28984 -0 0 8.51707 -11.51932 11.35383 7.614615 7.144957 -22.74682 -1.445029 -87.71346 20.59747 13.69732 0 0 -24.98865 10.71631 9.390908 0.5121399
2.920165 101.9191 48.75354 -2.618107 0.3595669 2.93193 8.478709 -16.37331 3.553378 -0 15.27575 -0 -10.0052 -4.979532 -1.526214 -2.601603 2.853097 -9.92039 -0 54.5247 -0 -6.46471 -5.071971 8.315202 -1.342116 -0.8181211 3.475544 3.580496 9.761219 -8.584899 0.4678861 19.82679 8.178602 4.137196 -25.6716 8.717261 5.115076 -16.19833 12.11397 89.27682 35.73029 -23.14816 -0 0 8.370482 -12.34043 11.46674 8.08608 6.524323 -22.49302 -2.181168 -87.70756 21.16098 14.41665 0 0 -24.80038 9.881276 8.647746 1.846944
3.223198 103.2515 54.49668 -1.628452 -1.161381 2.366548 7.334399 -10.18844 3.035483 -0 13.57094 -0 -9.829005 -6.779062 -1.388418 -2.40248 -3.668584 -8.820203 -0 59.68612 -0 -5.346553 -3.313809 9.331473 -1.369039 -0.6163844 4.010823 3.106396 10.27286 -8.13504 0.4673287 20.28587 7.765004 3.906268 -24.82591 8.302118 4.960255 -16.51623 12.11026 89.30367 35.69905 -22.58977 -0 0 8.650135 -13.35991 11.54448 8.637879 5.897273 -22.09426 -2.815727 -87.91512 21.74187 15.49519 0 0 -24.10505 8.950536 7.938066 3.28325
3.495893 104.3527 59.91632 -0.5589394 -2.379685 1.837797 6.182743 -4.532602 2.578005 -0 11.35648 -0 -9.478181 -8.318192 -1.104504 -2.059932 -10.06469 -7.737185 -0 59.84649 -0 -3.846611 -2.950604 10.95717 -1.442026 -0.459262 4.646282 2.560347 10.70665 -7.599529 0.4696023 20.73051 7.359517 3.690821 -23.95206 7.881138 4.747627 -16.98607 12.0941 88.94362 35.51701 -21.53402 -0 0 9.425498 -14.58638 11.58817 9.294865 5.323379 -21.56056 -3.272968 -88.3379 22.27802 16.88778 0 0 -22.93724 7.943974 7.287086 4.753436
